<?xml version="1.0" encoding="utf-8"?>
<!-- Generator: Adobe Illustrator 19.1.0, SVG Export Plug-In . SVG Version: 6.00 Build 0)  -->
<svg version="1.1" id="Layer_1" xmlns="http://www.w3.org/2000/svg" xmlns:xlink="http://www.w3.org/1999/xlink" x="0px" y="0px"
	 viewBox="-82 278.5 317 298.5" style="enable-background:new -82 278.5 317 298.5;" xml:space="preserve">
<style type="text/css">
	.st0{fill:#70A701;stroke:#231F20;}
	.st1{fill:#F90100;stroke:#231F20;}
	.st2{fill:#9107F3;stroke:#231F20;}
	.st3{fill:#EC8B00;stroke:#231F20;}
	.st4{font-family:'Ebrima-Bold';}
	.st5{font-size:12px;}
	.st6{font-family:'Ebrima';}
</style>
<g id="figure_1">
	<g id="axes_1">
		<g id="patch_2">
			<g>
				<path class="st0" d="M155.6,441.1c0-19.3-5-38.3-14.5-55.1c-9.5-16.8-23.3-30.8-39.8-40.7c-16.6-9.9-35.4-15.3-54.7-15.8
					s-38.4,4.1-55.4,13.3c-17,9.1-31.3,22.6-41.6,38.9c-10.3,16.3-16.1,35.1-17,54.4c-0.9,19.3,3.3,38.5,12.1,55.7
					c8.8,17.2,21.8,31.8,38,42.5L44,441.1H155.6z"/>
			</g>
		</g>
		<g id="patch_3">
			<g>
				<path class="st1" d="M-17.5,534.2c4.4,2.9,9,5.5,13.7,7.7c4.7,2.2,9.6,4.2,14.7,5.7L44,441.1L-17.5,534.2z"/>
			</g>
		</g>
		<g id="patch_4">
			<g>
				<path class="st2" d="M10.8,547.7c28.1,8.7,58.6,6,84.7-7.6c26.1-13.6,45.8-37.1,54.7-65.1L44,441.1L10.8,547.7z"/>
			</g>
		</g>
		<g id="patch_5">
			<g>
				<path class="st3" d="M150.3,474.9c1.7-5.5,3-11,3.9-16.7c0.9-5.7,1.3-11.4,1.3-17.1H44L150.3,474.9z"/>
			</g>
		</g>
		<g id="matplotlib.axis_1">
		</g>
	</g>
</g>
<text transform="matrix(1 0 0 1 -4.822 298.5)"><tspan x="0" y="0" class="st4 st5">Road Length by Project Type</tspan><tspan x="69.7" y="14.4" class="st4 st5">(mi)</tspan></text>
<g>
	<text transform="matrix(1 0 0 1 33.3892 407.5)" class="st6 st5">8.05</text>
</g>
<text transform="matrix(1 0 0 1 -9.7234 534.2462)" class="st6 st5">0.55</text>
<text transform="matrix(1 0 0 1 66.4998 512.7462)" class="st6 st5">3.05</text>
<text transform="matrix(1 0 0 1 153.5563 475.2462)" class="st6 st5">Reconstruction</text>
<text transform="matrix(1 0 0 1 111.0563 545.2462)" class="st6 st5">Overlay</text>
<text transform="matrix(1 0 0 1 -24.4437 553.2462)" class="st6 st5">New</text>
<text transform="matrix(1 0 0 1 10.8336 392.7462)" class="st6 st5">Chip &amp; Seal</text>
<text transform="matrix(1 0 0 1 127.3141 460.0196)" class="st6 st5">0.6</text>
</svg>
